<?xml version="1.0" encoding="utf-8"?>
<!-- Generator: Adobe Illustrator 24.3.0, SVG Export Plug-In . SVG Version: 6.00 Build 0)  -->
<svg version="1.1" xmlns="http://www.w3.org/2000/svg" xmlns:xlink="http://www.w3.org/1999/xlink" x="0px" y="0px"
	 viewBox="0 0 111 26" style="enable-background:new 0 0 111 26;" xml:space="preserve">
<style type="text/css">
	.st0{fill:#252525;}
	.st1{fill:#F9EB50;}
</style>
<g id="Background">
</g>
<g id="Objects">
	<rect x="0" y="0" class="st0" width="111" height="26"/>
	<g>
		<g>
			<path class="st1" d="M10.5,11.66c-0.2,0.04-0.35,0.07-0.44,0.09c-0.09,0.02-0.26,0.05-0.49,0.09c-0.23,0.04-0.4,0.07-0.52,0.08
				c-0.13,0.01-0.3,0.03-0.53,0.06C8.31,12,8.15,12,8.04,11.99c-0.13-0.01-0.28-0.03-0.47-0.04c-0.18-0.02-0.28-0.05-0.33-0.08
				c-0.1-0.05-0.19-0.12-0.29-0.19c-0.06-0.05-0.11-0.1-0.13-0.18c-0.04-0.09-0.05-0.2-0.05-0.31V7.07c0-0.13,0.03-0.32,0.33-0.51
				c0.26-0.16,0.6-0.25,1.03-0.25c0.6,0,1.17,0.07,1.67,0.2l0.22,0.06l0.73-1.71l-0.26-0.1c-0.7-0.26-1.48-0.4-2.31-0.43H7.96
				c-0.74,0-1.39,0.11-1.95,0.34C5.47,4.92,5.06,5.23,4.78,5.59C4.5,5.96,4.36,6.5,4.36,7.19v4.03c0,0.58,0.15,1.08,0.44,1.48
				c0.29,0.4,0.67,0.69,1.13,0.87c0.44,0.17,0.96,0.28,1.53,0.31c0.2,0.02,0.4,0.02,0.59,0.02c0.38,0,0.76-0.02,1.13-0.08
				c0.57-0.07,1.16-0.18,1.73-0.35l0.24-0.07l-0.4-1.8L10.5,11.66z"/>
			<path class="st1" d="M18.43,5.02c-0.67-0.5-1.61-0.75-2.8-0.75c-1.19,0-2.14,0.24-2.83,0.71c-0.72,0.49-1.09,1.22-1.09,2.17v4.04
				c0,0.94,0.41,1.65,1.21,2.09c0.75,0.42,1.66,0.63,2.69,0.63c1.03,0,1.93-0.21,2.67-0.63c0.79-0.44,1.19-1.15,1.19-2.09V7.16
				C19.48,6.26,19.13,5.54,18.43,5.02z M14.14,7.6c0-0.48,0.09-0.82,0.27-1.03c0.12-0.14,0.42-0.3,1.19-0.3
				c0.77,0,1.07,0.17,1.19,0.3c0.18,0.21,0.27,0.56,0.27,1.03v3.31c0,0.31-0.12,0.56-0.36,0.75c-0.26,0.2-0.63,0.31-1.1,0.31
				c-0.52,0-0.9-0.1-1.14-0.29c-0.22-0.18-0.33-0.42-0.33-0.75V7.6z"/>
			<polygon class="st1" points="21.44,13.77 23.86,13.77 23.86,9.91 25.55,9.91 26.42,8.07 23.86,8.07 23.86,6.37 27.72,6.37 
				27.72,4.47 21.44,4.47 			"/>
			<polygon class="st1" points="29.21,13.77 31.63,13.77 31.63,9.91 33.32,9.91 34.19,8.07 31.63,8.07 31.63,6.37 35.49,6.37 
				35.49,4.47 29.21,4.47 			"/>
			<polygon class="st1" points="36.98,13.77 43.23,13.77 43.23,12 39.4,12 39.4,9.91 41.14,9.91 41.89,8.07 39.4,8.07 39.4,6.37 
				43.26,6.37 43.26,4.47 36.98,4.47 			"/>
			<polygon class="st1" points="45,13.77 51.24,13.77 51.24,12 47.41,12 47.41,9.91 49.16,9.91 49.9,8.07 47.41,8.07 47.41,6.37 
				51.27,6.37 51.27,4.47 45,4.47 			"/>
			<path class="st1" d="M63.73,11.66c-0.21,0.04-0.35,0.07-0.44,0.09c-0.09,0.02-0.26,0.05-0.49,0.09c-0.23,0.04-0.4,0.07-0.52,0.08
				c-0.13,0.01-0.3,0.03-0.53,0.06c-0.2,0.02-0.36,0.03-0.47,0.02c-0.13-0.01-0.28-0.03-0.47-0.04c-0.18-0.02-0.28-0.05-0.33-0.08
				c-0.1-0.05-0.19-0.12-0.28-0.19c-0.06-0.05-0.11-0.1-0.13-0.18c-0.04-0.09-0.05-0.2-0.05-0.31V7.07c0-0.13,0.03-0.32,0.33-0.51
				c0.25-0.16,0.6-0.25,1.03-0.25c0.6,0,1.17,0.07,1.67,0.2l0.22,0.06l0.73-1.71l-0.26-0.1c-0.7-0.26-1.48-0.4-2.31-0.43H61.2
				c-0.74,0-1.4,0.11-1.95,0.34c-0.54,0.24-0.96,0.55-1.23,0.91c-0.28,0.37-0.42,0.91-0.42,1.6v4.03c0,0.58,0.15,1.08,0.44,1.48
				c0.29,0.4,0.67,0.69,1.13,0.87c0.44,0.17,0.96,0.28,1.53,0.31c0.2,0.02,0.4,0.02,0.59,0.02c0.38,0,0.76-0.02,1.13-0.08
				c0.57-0.07,1.16-0.18,1.73-0.35l0.24-0.07l-0.4-1.8L63.73,11.66z"/>
			<path class="st1" d="M71.67,5.02c-0.67-0.5-1.61-0.75-2.8-0.75c-1.19,0-2.14,0.24-2.83,0.71c-0.72,0.49-1.09,1.22-1.09,2.17v4.04
				c0,0.94,0.41,1.65,1.21,2.09c0.75,0.42,1.66,0.63,2.69,0.63c1.03,0,1.93-0.21,2.67-0.63c0.79-0.44,1.19-1.15,1.19-2.09V7.16
				C72.71,6.26,72.36,5.54,71.67,5.02z M67.37,7.6c0-0.48,0.09-0.82,0.27-1.03c0.12-0.14,0.42-0.3,1.19-0.3
				c0.77,0,1.07,0.17,1.19,0.3C70.2,6.8,70.3,7.14,70.3,7.61v3.31c0,0.31-0.12,0.56-0.36,0.75c-0.26,0.2-0.63,0.31-1.1,0.31
				c-0.52,0-0.9-0.1-1.14-0.29c-0.22-0.18-0.33-0.42-0.33-0.75V7.6z"/>
		</g>
		<g>
			<g>
				<path class="st1" d="M107.55,9.87c-0.17-1.87-0.86-3.18-2.05-3.89c-0.84-0.5-1.79-0.6-2.62-0.55c-0.05-0.48-0.11-0.96-0.2-1.43
					H80.15c-0.18,0.99-0.28,2.01-0.28,3.06c0,7.7,5.17,13.94,11.55,13.94c3.6,0,6.82-1.99,8.93-5.11c0.3-0.04,0.59-0.08,0.87-0.11
					C105.02,15.3,108.01,14.92,107.55,9.87z M101.35,14.17c1.03-2.08,1.61-4.51,1.61-7.11c0-0.02,0-0.04,0-0.06
					c0.58-0.04,1.21,0.02,1.73,0.34c0.73,0.44,1.16,1.34,1.28,2.67C106.29,13.45,104.95,13.72,101.35,14.17z"/>
			</g>
		</g>
		<g>
			<path class="st1" d="M6.79,20.81H5.73v-4.89h2.19c0.67,0,1.17,0.16,1.49,0.47C9.74,16.7,9.9,17.1,9.9,17.58
				c0,1.25-0.63,1.87-1.89,1.87H6.79V20.81z M6.79,18.72h0.9c0.22,0,0.4-0.03,0.56-0.08c0.16-0.05,0.27-0.11,0.35-0.17
				c0.07-0.06,0.13-0.15,0.17-0.27c0.04-0.12,0.06-0.21,0.07-0.28c0-0.07,0.01-0.16,0.01-0.28c0-0.02,0-0.04,0-0.05
				c0-0.36-0.1-0.6-0.29-0.72c-0.19-0.12-0.49-0.18-0.9-0.18H6.79V18.72z"/>
			<path class="st1" d="M15.2,20.81h-1.08l-0.64-1.36h-1.4v1.36h-1.06v-4.89h2.28c0.62,0,1.09,0.16,1.41,0.48
				c0.32,0.32,0.48,0.71,0.48,1.19c0,0.23-0.01,0.41-0.02,0.55c-0.02,0.14-0.08,0.31-0.2,0.53c-0.11,0.21-0.29,0.4-0.52,0.54
				L15.2,20.81z M12.08,18.72h0.97c0.2,0,0.37-0.03,0.5-0.08c0.14-0.06,0.24-0.12,0.3-0.18c0.06-0.07,0.11-0.17,0.15-0.29
				c0.04-0.12,0.06-0.22,0.06-0.29c0-0.07,0.01-0.17,0.01-0.29c0-0.36-0.1-0.6-0.3-0.71c-0.2-0.12-0.51-0.17-0.92-0.17h-0.78V18.72z
				"/>
			<path class="st1" d="M19.63,20.81h-3.19v-4.89h3.21v0.77H17.5v1.24h1.31l-0.3,0.74H17.5v1.45h2.13V20.81z"/>
			<path class="st1" d="M26.05,20.81H25v-2.59l-1.12,2.59h-0.81l-1.1-2.58v2.58h-1.06v-4.89h1.06l1.51,3.24L25,15.92h1.06V20.81z"/>
			<path class="st1" d="M29.06,20.81H28v-4.14l-0.6-0.01v-0.74h1.65V20.81z"/>
			<path class="st1" d="M33.53,19.2v-3.29h1.06v3.6c0,0.25-0.06,0.46-0.18,0.64c-0.12,0.18-0.28,0.32-0.48,0.42
				c-0.2,0.1-0.41,0.17-0.64,0.22c-0.22,0.05-0.46,0.07-0.72,0.07c-0.26,0-0.5-0.02-0.72-0.07c-0.23-0.05-0.44-0.12-0.64-0.22
				c-0.2-0.1-0.36-0.24-0.48-0.42c-0.12-0.18-0.18-0.4-0.18-0.64v-3.6h1.06v3.29c0,0.32,0.07,0.55,0.2,0.69
				c0.13,0.14,0.38,0.21,0.76,0.21c0.39,0,0.64-0.07,0.77-0.21C33.46,19.75,33.53,19.52,33.53,19.2z"/>
			<path class="st1" d="M41.16,20.81H40.1v-2.59l-1.12,2.59h-0.81l-1.1-2.58v2.58h-1.06v-4.89h1.06l1.51,3.24l1.53-3.24h1.06V20.81z
				"/>
			<path class="st1" d="M48.74,20.97l-0.13,0.66c-0.03,0-0.06,0-0.1,0c-0.84,0-1.39-0.25-1.64-0.76c-0.19-0.01-0.38-0.05-0.55-0.1
				c-0.18-0.05-0.35-0.12-0.53-0.22c-0.18-0.09-0.32-0.23-0.42-0.41c-0.11-0.18-0.16-0.38-0.16-0.62v-2.25
				c0-0.48,0.18-0.84,0.54-1.09c0.36-0.25,0.86-0.37,1.49-0.37c0.63,0,1.12,0.13,1.47,0.39c0.35,0.26,0.52,0.62,0.52,1.08v2.24
				c0,0.39-0.13,0.69-0.4,0.9c-0.27,0.21-0.57,0.34-0.9,0.38c0.08,0.07,0.18,0.11,0.28,0.13C48.33,20.96,48.5,20.97,48.74,20.97z
				 M48.18,19.5v-2.22c0-0.07-0.01-0.14-0.03-0.2c-0.02-0.06-0.06-0.13-0.12-0.21c-0.06-0.08-0.16-0.14-0.3-0.18
				c-0.14-0.04-0.31-0.07-0.5-0.07c-0.38,0-0.64,0.06-0.77,0.18c-0.13,0.12-0.19,0.28-0.19,0.48v2.23c0,0.39,0.14,0.59,0.43,0.59
				c-0.01-0.03-0.01-0.16-0.01-0.38V19.6h1.06v0.12v0.38C48.03,20.1,48.18,19.9,48.18,19.5z"/>
			<path class="st1" d="M53.03,19.2v-3.29h1.06v3.6c0,0.25-0.06,0.46-0.18,0.64c-0.12,0.18-0.28,0.32-0.48,0.42
				c-0.2,0.1-0.41,0.17-0.64,0.22c-0.22,0.05-0.46,0.07-0.72,0.07c-0.26,0-0.5-0.02-0.73-0.07c-0.23-0.05-0.44-0.12-0.64-0.22
				c-0.2-0.1-0.36-0.24-0.48-0.42c-0.12-0.18-0.18-0.4-0.18-0.64v-3.6h1.06v3.29c0,0.32,0.06,0.55,0.2,0.69
				c0.13,0.14,0.38,0.21,0.76,0.21c0.38,0,0.64-0.07,0.77-0.21C52.96,19.75,53.03,19.52,53.03,19.2z"/>
			<path class="st1" d="M59.08,20.81h-1.26l-0.39-1.28h-1.55l-0.38,1.28h-1.19l1.57-4.89h1.49L59.08,20.81z M57.18,18.72l-0.55-1.51
				l-0.5,1.51H57.18z"/>
			<path class="st1" d="M63.39,20.81h-3.47v-4.89h1.06v4.19h2.41V20.81z"/>
			<path class="st1" d="M65.64,20.81h-1.06v-4.14l-0.6-0.01v-0.74h1.65V20.81z"/>
			<path class="st1" d="M68.84,20.81h-1.06V16.7H66.4v-0.78h3.86v0.78h-1.42V20.81z"/>
			<path class="st1" d="M73.55,20.95l-0.34-0.59c0.21-0.02,0.38-0.08,0.52-0.17c0.13-0.1,0.2-0.27,0.2-0.52v-0.39
				c-0.32,0.12-0.66,0.17-1.01,0.17c-0.66,0-1.19-0.14-1.59-0.41c-0.4-0.27-0.6-0.64-0.6-1.11v-2.01h1.06v1.94
				c0,0.56,0.38,0.84,1.14,0.84c0.08,0,0.15,0,0.22-0.01c0.07-0.01,0.13-0.01,0.18-0.02c0.05-0.01,0.1-0.02,0.15-0.03
				c0.04-0.01,0.09-0.02,0.13-0.04c0.04-0.02,0.07-0.03,0.1-0.04c0.03-0.01,0.05-0.02,0.08-0.04c0.03-0.02,0.05-0.03,0.06-0.04
				c0.01-0.01,0.03-0.02,0.05-0.04l0.04-0.02v-2.5h1.06v3.8c0,0.37-0.11,0.66-0.33,0.86C74.45,20.79,74.07,20.91,73.55,20.95z"/>
		</g>
		<path class="st1" d="M77.8,12.22c0,0.92-0.75,1.67-1.67,1.67c-0.92,0-1.67-0.75-1.67-1.67c0-0.92,0.75-1.67,1.67-1.67
			C77.06,10.55,77.8,11.3,77.8,12.22z"/>
		<g>
			<rect x="109.5" y="24.5" class="st1" width="1" height="1"/>
			<path class="st1" d="M108.51,25.5h-0.99v-1h0.99V25.5z M106.53,25.5h-0.99v-1h0.99V25.5z M104.55,25.5h-0.99v-1h0.99V25.5z
				 M102.56,25.5h-0.99v-1h0.99V25.5z M100.58,25.5h-0.99v-1h0.99V25.5z M98.6,25.5h-0.99v-1h0.99V25.5z M96.62,25.5h-0.99v-1h0.99
				V25.5z M94.64,25.5h-0.99v-1h0.99V25.5z M92.66,25.5h-0.99v-1h0.99V25.5z M90.67,25.5h-0.99v-1h0.99V25.5z M88.69,25.5H87.7v-1
				h0.99V25.5z M86.71,25.5h-0.99v-1h0.99V25.5z M84.73,25.5h-0.99v-1h0.99V25.5z M82.75,25.5h-0.99v-1h0.99V25.5z M80.77,25.5
				h-0.99v-1h0.99V25.5z M78.78,25.5h-0.99v-1h0.99V25.5z M76.8,25.5h-0.99v-1h0.99V25.5z M74.82,25.5h-0.99v-1h0.99V25.5z
				 M72.84,25.5h-0.99v-1h0.99V25.5z M70.86,25.5h-0.99v-1h0.99V25.5z M68.88,25.5h-0.99v-1h0.99V25.5z M66.89,25.5H65.9v-1h0.99
				V25.5z M64.91,25.5h-0.99v-1h0.99V25.5z M62.93,25.5h-0.99v-1h0.99V25.5z M60.95,25.5h-0.99v-1h0.99V25.5z M58.97,25.5h-0.99v-1
				h0.99V25.5z M56.99,25.5H56v-1h0.99V25.5z M55,25.5h-0.99v-1H55V25.5z M53.02,25.5h-0.99v-1h0.99V25.5z M51.04,25.5h-0.99v-1
				h0.99V25.5z M49.06,25.5h-0.99v-1h0.99V25.5z M47.08,25.5h-0.99v-1h0.99V25.5z M45.1,25.5h-0.99v-1h0.99V25.5z M43.11,25.5h-0.99
				v-1h0.99V25.5z M41.13,25.5h-0.99v-1h0.99V25.5z M39.15,25.5h-0.99v-1h0.99V25.5z M37.17,25.5h-0.99v-1h0.99V25.5z M35.19,25.5
				H34.2v-1h0.99V25.5z M33.21,25.5h-0.99v-1h0.99V25.5z M31.23,25.5h-0.99v-1h0.99V25.5z M29.24,25.5h-0.99v-1h0.99V25.5z
				 M27.26,25.5h-0.99v-1h0.99V25.5z M25.28,25.5h-0.99v-1h0.99V25.5z M23.3,25.5h-0.99v-1h0.99V25.5z M21.32,25.5h-0.99v-1h0.99
				V25.5z M19.33,25.5h-0.99v-1h0.99V25.5z M17.35,25.5h-0.99v-1h0.99V25.5z M15.37,25.5h-0.99v-1h0.99V25.5z M13.39,25.5H12.4v-1
				h0.99V25.5z M11.41,25.5h-0.99v-1h0.99V25.5z M9.43,25.5H8.44v-1h0.99V25.5z M7.45,25.5H6.45v-1h0.99V25.5z M5.46,25.5H4.47v-1
				h0.99V25.5z M3.48,25.5H2.49v-1h0.99V25.5z"/>
			<rect x="0.5" y="24.5" class="st1" width="1" height="1"/>
			<path class="st1" d="M1.5,23.5h-1v-1h1V23.5z M1.5,21.5h-1v-1h1V21.5z M1.5,19.5h-1v-1h1V19.5z M1.5,17.5h-1v-1h1V17.5z
				 M1.5,15.5h-1v-1h1V15.5z M1.5,13.5h-1v-1h1V13.5z M1.5,11.5h-1v-1h1V11.5z M1.5,9.5h-1v-1h1V9.5z M1.5,7.5h-1v-1h1V7.5z
				 M1.5,5.5h-1v-1h1V5.5z M1.5,3.5h-1v-1h1V3.5z"/>
			<rect x="0.5" y="0.5" class="st1" width="1" height="1"/>
			<path class="st1" d="M108.51,1.5h-0.99v-1h0.99V1.5z M106.53,1.5h-0.99v-1h0.99V1.5z M104.55,1.5h-0.99v-1h0.99V1.5z M102.56,1.5
				h-0.99v-1h0.99V1.5z M100.58,1.5h-0.99v-1h0.99V1.5z M98.6,1.5h-0.99v-1h0.99V1.5z M96.62,1.5h-0.99v-1h0.99V1.5z M94.64,1.5
				h-0.99v-1h0.99V1.5z M92.66,1.5h-0.99v-1h0.99V1.5z M90.67,1.5h-0.99v-1h0.99V1.5z M88.69,1.5H87.7v-1h0.99V1.5z M86.71,1.5
				h-0.99v-1h0.99V1.5z M84.73,1.5h-0.99v-1h0.99V1.5z M82.75,1.5h-0.99v-1h0.99V1.5z M80.77,1.5h-0.99v-1h0.99V1.5z M78.78,1.5
				h-0.99v-1h0.99V1.5z M76.8,1.5h-0.99v-1h0.99V1.5z M74.82,1.5h-0.99v-1h0.99V1.5z M72.84,1.5h-0.99v-1h0.99V1.5z M70.86,1.5
				h-0.99v-1h0.99V1.5z M68.88,1.5h-0.99v-1h0.99V1.5z M66.89,1.5H65.9v-1h0.99V1.5z M64.91,1.5h-0.99v-1h0.99V1.5z M62.93,1.5
				h-0.99v-1h0.99V1.5z M60.95,1.5h-0.99v-1h0.99V1.5z M58.97,1.5h-0.99v-1h0.99V1.5z M56.99,1.5H56v-1h0.99V1.5z M55,1.5h-0.99v-1
				H55V1.5z M53.02,1.5h-0.99v-1h0.99V1.5z M51.04,1.5h-0.99v-1h0.99V1.5z M49.06,1.5h-0.99v-1h0.99V1.5z M47.08,1.5h-0.99v-1h0.99
				V1.5z M45.1,1.5h-0.99v-1h0.99V1.5z M43.11,1.5h-0.99v-1h0.99V1.5z M41.13,1.5h-0.99v-1h0.99V1.5z M39.15,1.5h-0.99v-1h0.99V1.5z
				 M37.17,1.5h-0.99v-1h0.99V1.5z M35.19,1.5H34.2v-1h0.99V1.5z M33.21,1.5h-0.99v-1h0.99V1.5z M31.22,1.5h-0.99v-1h0.99V1.5z
				 M29.24,1.5h-0.99v-1h0.99V1.5z M27.26,1.5h-0.99v-1h0.99V1.5z M25.28,1.5h-0.99v-1h0.99V1.5z M23.3,1.5h-0.99v-1h0.99V1.5z
				 M21.32,1.5h-0.99v-1h0.99V1.5z M19.33,1.5h-0.99v-1h0.99V1.5z M17.35,1.5h-0.99v-1h0.99V1.5z M15.37,1.5h-0.99v-1h0.99V1.5z
				 M13.39,1.5H12.4v-1h0.99V1.5z M11.41,1.5h-0.99v-1h0.99V1.5z M9.43,1.5H8.44v-1h0.99V1.5z M7.44,1.5H6.45v-1h0.99V1.5z
				 M5.46,1.5H4.47v-1h0.99V1.5z M3.48,1.5H2.49v-1h0.99V1.5z"/>
			<rect x="109.5" y="0.5" class="st1" width="1" height="1"/>
			<path class="st1" d="M110.5,23.5h-1v-1h1V23.5z M110.5,21.5h-1v-1h1V21.5z M110.5,19.5h-1v-1h1V19.5z M110.5,17.5h-1v-1h1V17.5z
				 M110.5,15.5h-1v-1h1V15.5z M110.5,13.5h-1v-1h1V13.5z M110.5,11.5h-1v-1h1V11.5z M110.5,9.5h-1v-1h1V9.5z M110.5,7.5h-1v-1h1
				V7.5z M110.5,5.5h-1v-1h1V5.5z M110.5,3.5h-1v-1h1V3.5z"/>
		</g>
	</g>
</g>
</svg>
